/* XPM */
static char *connect5[]={
"26 14 35 1",
". c None",
"l c #000000",
"G c #000008",
"k c #202c39",
"j c #203039",
"h c #292c39",
"g c #292c41",
"o c #4a5562",
"s c #4a595a",
"q c #525562",
"y c #62717b",
"x c #627183",
"a c #6a717b",
"b c #6a757b",
"d c #6a7583",
"c c #737583",
"f c #a4aebd",
"B c #a4b2b4",
"D c #a4b2bd",
"i c #a8dcff",
"E c #acaebd",
"C c #acb2c5",
"e c #acb6bd",
"F c #c00000",
"# c #dcdcdc",
"n c #e6e6ee",
"A c #e6e6f6",
"v c #e6eae6",
"p c #e6eaee",
"m c #e6eaf6",
"u c #eeeaee",
"r c #eeeaf6",
"t c #eeeeee",
"w c #f6eef6",
"z c #ff0000",
"..........................",
"..........................",
".......#ababacadaba.......",
".......aefgfhijfkefl......",
"acadacamnmopilqrsttthcacac",
"utvwtvwvwuxuyliuattuzzzzzz",
"pArnArnrnmqpqisrqtuzzzzzzz",
"BCBCCBCDefkEilhBjCEEFFFFFF",
"llllllldadGdGlicGaaallllll",
".......lCElflilBlCEl......",
"........lllllllllll.......",
"..........................",
"..........................",
".....#...................."};
