/* XPM */
static char *magick[] = {
/* columns rows colors chars-per-pixel */
"20 14 6 1",
"  c Gray0",
". c #52005200f800",
"X c #84007b007b00",
"o c #f70010004200",
"O c Yellow",
"+ c None",
/* pixels */
"++++++++++++++++++++",
"++++++++++++++++++++",
"++++++++++++++++++  ",
"+++++++++XXXXXX++   ",
"++++++++X.oooooX+   ",
"++++++XX..ooooooX   ",
"+++++XOO..oooooX+   ",
"++++XO  ..ooooooX   ",
"++++XO +X.oooooX+   ",
"+++XO +++XXXXXX++   ",
"+++XO ++++++++++++  ",
"+++XO ++++++++++++++",
"++++++++++++++++++++",
"++++++++++++++++++++"
};
