/* XPM */
static char * connect2_xpm[] = {
"26 14 32 1",
" 	c None",
".	c #DCDCDC",
"+	c #6A717B",
"@	c #6A757B",
"#	c #737583",
"$	c #6A7583",
"%	c #E6EAEE",
"&	c #292C41",
"*	c #A4AEBD",
"=	c #292C39",
"-	c #A8DCFF",
";	c #203039",
">	c #202C39",
",	c #B4B2C5",
"'	c #000000",
")	c #4A5562",
"!	c #EEEAF6",
"~	c #525562",
"{	c #4A595A",
"]	c #E6E6EE",
"^	c #E6EAF6",
"/	c #627183",
"(	c #EEEAEE",
"_	c #62717B",
":	c #E6EAE6",
"<	c #F6EEF6",
"[	c #EEE6F6",
"}	c #ACB2C5",
"|	c #A4B2B4",
"1	c #ACB6C5",
"2	c #ACB6BD",
"3	c #000008",
"                          ",
"                          ",
"       .+@+@+#+$+@+       ",
"       +%%&*=-;*>*,'      ",
"+#+$+#+%%%)!-'~!{!]^=#+#+#",
"%%%%%%%%%%/(_'-(+:<:<:<:<:",
"%%%%%%%%%%~!~-{!~%[%[%[%]!",
"}}}}}}}}}}>|-'=|;*1|}*2*1*",
"'''''''+++3#3'-#3#+#''''''",
"       '22'|'-'|'|2'      ",
"        '''''''''''       ",
"                          ",
"                          ",
"                          "};
