/* XPM */
static char * connect3_xpm[] = {
"26 14 29 1",
" 	c None",
".	c #DCDCDC",
"+	c #6A717B",
"@	c #6A757B",
"#	c #737583",
"$	c #6A7583",
"%	c #E6EAEE",
"&	c #292C41",
"*	c #A4AEBD",
"=	c #292C39",
"-	c #000000",
";	c #A8DCFF",
">	c #202C39",
",	c #E6EAE6",
"'	c #4A5562",
")	c #525562",
"!	c #EEEAF6",
"~	c #4A595A",
"{	c #627183",
"]	c #EEEAEE",
"^	c #F6EEF6",
"/	c #EEE6F6",
"(	c #E6E6EE",
"_	c #ACB6C5",
":	c #ACAEBD",
"<	c #203039",
"[	c #A4B2B4",
"}	c #ACB6BD",
"|	c #000008",
"                          ",
"                          ",
"       .+@+@+#+$+@+       ",
"       +%%&*=-;*>,,-      ",
"+#+$+#+%%%'%);)!~,,,=#+#+#",
"%%%%%%%%%%{];-{]+,,,,,^,^,",
"%%%%%%%%%%)%)-;!),,,,,/%(!",
"*_*_______>:<;=[<***_*}*_*",
"-------+++|$;--#|+++------",
"       -}}-*--;[-}}-      ",
"        -----------       ",
"                          ",
"                          ",
"     .                    "};
