/* XPM */
static char * connect1_xpm[] = {
"26 14 33 1",
" 	c None",
".	c #6A717B",
"+	c #6A757B",
"@	c #737583",
"#	c #6A7583",
"$	c #ACB6BD",
"%	c #A4AEBD",
"&	c #292C41",
"*	c #A8DCFF",
"=	c #000000",
"-	c #203039",
";	c #202C39",
">	c #B4B2C5",
",	c #E6EAF6",
"'	c #E6E6EE",
")	c #4A5562",
"!	c #E6EAEE",
"~	c #525562",
"{	c #EEEAF6",
"]	c #4A595A",
"^	c #292C39",
"/	c #E6EAE6",
"(	c #F6EEF6",
"_	c #EEEAEE",
":	c #627183",
"<	c #62717B",
"[	c #EEE6F6",
"}	c #A4B2BD",
"|	c #ACAEBD",
"1	c #A4B2B4",
"2	c #ACB6C5",
"3	c #ACB2C5",
"4	c #000008",
"                          ",
"                          ",
"        .+.+.@.#.+.       ",
"        $%&%*=-%;%>=      ",
".@.#.@.,',)!~=*{]{',^@.@.@",
"////////(_:_<*:_./(/(/(/(/",
"////////',~!*=]{~![![![!'{",
"}}}}}}}}$%;|-=*1-%213%$%2%",
"=======#.#4#4*=@4@.@======",
"       =3|=%*==1=1$=      ",
"        ===========       ",
"                          ",
"                          ",
"                          "};
