/* XPM */
static char *connect6[]={
"26 14 37 1",
". c None",
"i c #000000",
"I c #000008",
"k c #202c39",
"F c #203039",
"h c #292c39",
"g c #292c41",
"o c #4a5562",
"s c #4a595a",
"q c #525562",
"x c #627183",
"a c #6a717b",
"b c #6a757b",
"d c #6a7583",
"c c #737583",
"f c #a4aebd",
"B c #a4b2b4",
"D c #a4b2bd",
"j c #a8dcff",
"E c #acaebd",
"C c #acb2c5",
"e c #acb6bd",
"G c #acb6c5",
"l c #b4b2c5",
"H c #c00000",
"# c #dcdcdc",
"n c #e6e6ee",
"z c #e6e6f6",
"v c #e6eae6",
"p c #e6eaee",
"m c #e6eaf6",
"A c #eee6f6",
"t c #eeeaee",
"r c #eeeaf6",
"u c #eeeeee",
"w c #f6eef6",
"y c #ff0000",
"..........................",
"..........................",
".......#ababacadaba.......",
".......aefgfhijfkfli......",
"acadacamnmopqjqrsrnmhcacac",
"tuvwuvwvwtxtjixtavwvvvvyyy",
"pzrnzrnrnmqpqijrqpAvvvyyyy",
"BCBCCBCDefkEFjhBFfGBGGGHHH",
"iiiiiiidadIdjiicIcaciiiiii",
".......iCEifiijBiBei......",
"........iiiiiiiiiii.......",
"..........................",
"..........................",
".....#...................."};
