/* XPM */
static char *connect2[]={
"26 14 34 1",
". c None",
"m c #000000",
"F c #000008",
"k c #202c39",
"j c #203039",
"h c #292c39",
"f c #292c41",
"n c #4a5562",
"q c #4a595a",
"p c #525562",
"w c #62717b",
"u c #627183",
"a c #6a717b",
"b c #6a757b",
"d c #6a7583",
"c c #737583",
"g c #a4aebd",
"C c #a4b2b4",
"i c #a8dcff",
"A c #acb2c5",
"E c #acb6bd",
"D c #acb6c5",
"l c #b4b2c5",
"B c #c00000",
"# c #dcdcdc",
"r c #e6e6ee",
"x c #e6eae6",
"t c #e6eaee",
"s c #e6eaf6",
"z c #eee6f6",
"v c #eeeaee",
"o c #eeeaf6",
"y c #f6eef6",
"e c #ff0000",
"..........................",
"..........................",
".......#ababacadaba.......",
".......aeefghijgkglm......",
"acadacaeeenoimpoqorshcacac",
"tttteeeeeeuvwmivaxyxyxyxyx",
"ttteeeeeeepopiqoptztztztro",
"AAAABBBBeekCimhCjgDCAgEgDg",
"mmmmmmmBBeFcFmicFcacmmmmmm",
".......mBBmCmimCmCEm......",
"........mmmmmmmmmmm.......",
"..........................",
"..........................",
".....#...................."};
