/* XPM */
static char * connect7_xpm[] = {
"26 14 35 1",
" 	c None",
".	c #6A717B",
"+	c #6A757B",
"@	c #737583",
"#	c #6A7583",
"$	c #ACB6BD",
"%	c #A4AEBD",
"&	c #292C41",
"*	c #A8DCFF",
"=	c #000000",
"-	c #203039",
";	c #202C39",
">	c #B4B2C5",
",	c #E6EAF6",
"'	c #E6E6EE",
")	c #4A5562",
"!	c #E6EAEE",
"~	c #525562",
"{	c #EEEAF6",
"]	c #4A595A",
"^	c #292C39",
"/	c #EEEAEE",
"(	c #EEEEEE",
"_	c #E6EAE6",
":	c #F6EEF6",
"<	c #627183",
"[	c #62717B",
"}	c #E6E6F6",
"|	c #EEE6F6",
"1	c #A4B2B4",
"2	c #ACB2C5",
"3	c #A4B2BD",
"4	c #ACAEBD",
"5	c #ACB6C5",
"6	c #000008",
"                          ",
"                          ",
"        .+.+.@.#.+.       ",
"       .$%&%*=-%;%>=      ",
".@.#.@.,',)!~=*{]{',^@.@.@",
"/(_:(_:_:/</[*</._:_:_:___",
"!}{'}{'{',~!*=]{~!|!|!____",
"12122123$%;4-=*1-%512%$111",
"=======#.#6#6*=@6@.@======",
"       =24=%*==1=1$=      ",
"        ===========       ",
"                          ",
"                          ",
"                          "};
