/* XPM */
static char * connect4_xpm[] = {
"26 14 32 1",
" 	c None",
".	c #6A717B",
"+	c #6A757B",
"@	c #737583",
"#	c #6A7583",
"$	c #ACB6BD",
"%	c #A4AEBD",
"&	c #292C41",
"*	c #A8DCFF",
"=	c #000000",
"-	c #203039",
";	c #202C39",
">	c #E6E6EE",
",	c #E6EAF6",
"'	c #4A5562",
")	c #E6EAEE",
"!	c #525562",
"~	c #EEEAF6",
"{	c #4A595A",
"]	c #292C39",
"^	c #E6EAE6",
"/	c #F6EEF6",
"(	c #EEEAEE",
"_	c #627183",
":	c #62717B",
"<	c #EEE6F6",
"[	c #ACB6C5",
"}	c #A4B2B4",
"|	c #ACB2C5",
"1	c #A4B2BD",
"2	c #ACAEBD",
"3	c #000008",
"                          ",
"                          ",
"        .+.+.@.#.+.       ",
"       .$%&%*=-%;>>=      ",
".@.#.@.,>,')!=*~{>>>]@.@.@",
"^/^/^//^/(_(:*_(.>>>>>>^/^",
")<)<)<>~>>!)*={~!>>>>>>>>~",
"%[}|%$|1$%;2-=*}-$$$$$$%[%",
"=======#.#3#3*=@3###======",
"       =|2=%*==}=||=      ",
"        ===========       ",
"                          ",
"                          ",
"                          "};
