/* XPM */
static char *connect7[]={
"26 14 36 1",
". c None",
"i c #000000",
"H c #000008",
"k c #202c39",
"j c #203039",
"t c #292c39",
"g c #292c41",
"o c #4a5562",
"s c #4a595a",
"q c #525562",
"z c #62717b",
"y c #627183",
"a c #6a717b",
"b c #6a757b",
"d c #6a7583",
"c c #737583",
"f c #a4aebd",
"C c #a4b2b4",
"E c #a4b2bd",
"h c #a8dcff",
"F c #acaebd",
"D c #acb2c5",
"e c #acb6bd",
"G c #acb6c5",
"l c #b4b2c5",
"# c #dcdcdc",
"n c #e6e6ee",
"A c #e6e6f6",
"w c #e6eae6",
"p c #e6eaee",
"m c #e6eaf6",
"B c #eee6f6",
"u c #eeeaee",
"r c #eeeaf6",
"v c #eeeeee",
"x c #f6eef6",
"..........................",
"..........................",
".......#ababacadaba.......",
".......aefgfhijfkfli......",
"acadacamnmopqihrsrnmtcacac",
"uvwxvwxwxuyuzhyuawxwxwxwww",
"pArnArnrnmqphisrqpBpBpwwww",
"CDCDDCDEefkFjihCjfGCDfeCCC",
"iiiiiiidadHdHhicHcaciiiiii",
".......iDFifhiiCiCei......",
"........iiiiiiiiiii.......",
"..........................",
"..........................",
".....#...................."};
