/* XPM */
static char * connect6_xpm[] = {
"26 14 34 1",
" 	c None",
".	c #6A7583",
"+	c #6A757B",
"@	c #6A717B",
"#	c #737583",
"$	c #ACB6BD",
"%	c #A4AEBD",
"&	c #292C41",
"*	c #292C39",
"=	c #000000",
"-	c #A8DCFF",
";	c #202C39",
">	c #B4B2C5",
",	c #E6EAF6",
"'	c #E6E6EE",
")	c #4A5562",
"!	c #E6EAEE",
"~	c #525562",
"{	c #EEEAF6",
"]	c #4A595A",
"^	c #EEEAEE",
"/	c #EEEEEE",
"(	c #E6EAE6",
"_	c #F6EEF6",
":	c #627183",
"<	c #E6E6F6",
"[	c #EEE6F6",
"}	c #A4B2B4",
"|	c #ACB2C5",
"1	c #A4B2BD",
"2	c #ACAEBD",
"3	c #203039",
"4	c #ACB6C5",
"5	c #000008",
"                          ",
"                          ",
"        .+@+@#@.@+@       ",
"       @$%&%*=-%;%>.      ",
"@#@.@#@,',)!~-~{]{',.#@#@#",
"^/(_/(_(_^:^-=:^@(_(((((((",
"!<{'<{'{',~!~=-{~![(((((((",
"}|}||}|1$%;23-*}3%4}444444",
"=======.@.5.-==#5#@#======",
"       =|2=%==-}=}$=      ",
"        ===========       ",
"                          ",
"                          ",
"                          "};
