/* XPM */
static char *connect3[]={
"26 14 31 1",
". c None",
"i c #000000",
"C c #000008",
"k c #202c39",
"z c #203039",
"h c #292c39",
"f c #292c41",
"l c #4a5562",
"p c #4a595a",
"n c #525562",
"q c #627183",
"a c #6a717b",
"b c #6a757b",
"d c #6a7583",
"c c #737583",
"g c #a4aebd",
"A c #a4b2b4",
"j c #a8dcff",
"y c #acaebd",
"B c #acb6bd",
"w c #acb6c5",
"x c #c00000",
"# c #dcdcdc",
"v c #e6e6ee",
"t c #e6eae6",
"m c #e6eaee",
"s c #eee6f6",
"r c #eeeaee",
"o c #eeeaf6",
"u c #f6eef6",
"e c #ff0000",
"..........................",
"..........................",
".......#ababacadaba.......",
".......aeefghijgkeei......",
"acadacaeeelmnjnopeeehcacac",
"mmmmmmmeeeqrjiqraeeestutut",
"mmmmmmeeeenmnijoneeeessmvo",
"gwgwwwwxeekyzjhAzeeewgBgwg",
"iiiiiiixxeCdjiicCexxiiiiii",
".......ixxigiijAixxi......",
"........iiiiiiiiiii.......",
"..........................",
"..........................",
".....#...................."};
