/* XPM */
static char *magick[] = {
/* columns rows colors chars-per-pixel */
"20 14 6 1",
"  c Gray0",
". c #52005200f800",
"X c #84007b007b00",
"o c #f70010004200",
"O c Yellow",
"+ c None",
/* pixels */
"++++++++++++++++++++",
"++++++++++++++++++++",
"++++++++++++++++++  ",
"+++++++++XXXXXX++   ",
"++++++++Xooo..oX+   ",
"++++++XXoooo..ooX   ",
"+++++XOOoooo..oX+   ",
"++++XO  oooo..ooX   ",
"++++XO +Xooo..oX+   ",
"+++XO +++XXXXXX++   ",
"+++XO ++++++++++++  ",
"+++XO ++++++++++++++",
"++++++++++++++++++++",
"++++++++++++++++++++"
};
