/* XPM */
static char * connect0_xpm[] = {
"26 14 32 1",
" 	c None",
".	c #6A717B",
"+	c #6A757B",
"@	c #737583",
"#	c #6A7583",
"$	c #ACB6BD",
"%	c #A4AEBD",
"&	c #292C41",
"*	c #292C39",
"=	c #000000",
"-	c #A8DCFF",
";	c #202C39",
">	c #B4B2C5",
",	c #E6EAF6",
"'	c #E6E6EE",
")	c #4A5562",
"!	c #E6EAEE",
"~	c #525562",
"{	c #EEEAF6",
"]	c #4A595A",
"^	c #E6EAE6",
"/	c #F6EEF6",
"(	c #EEEAEE",
"_	c #627183",
":	c #EEE6F6",
"<	c #ACB2C5",
"[	c #A4B2B4",
"}	c #A4B2BD",
"|	c #ACAEBD",
"1	c #203039",
"2	c #ACB6C5",
"3	c #000008",
"                          ",
"                          ",
"        .+.+.@.#.+.       ",
"       .$%&%*=-%;%>=      ",
".@.#.@.,',)!~-~{]{',*@.@.@",
"^^^^^^/^/(_(-=_(.^/^/^/^/^",
"^^^^^{'{',~!~=-{~!:!:!:!'{",
"<<<[<[<}$%;|1-*[1%2[<%$%2%",
"=======#.#3#-==@3@.@======",
"       =<|=%==-[=[$=      ",
"        ===========       ",
"                          ",
"                          ",
"                          "};
