/* XPM */
static char *dock_hand3[] = {
/* width height num_colors chars_per_pixel */
"    24    24      196            2",
/* colors */
".. c #22140e",
".# c #281812",
".a c #2e1a12",
".b c #321e14",
".c c #342018",
".d c #34201a",
".e c #342722",
".f c #382018",
".g c #38211a",
".h c #38221c",
".i c #38251e",
".j c #392a22",
".k c #3a241a",
".l c #3c231a",
".m c #3e342e",
".n c #40251e",
".o c #44271c",
".p c #443932",
".q c #46291c",
".r c #462b20",
".s c #462b22",
".t c #472c1e",
".u c #4a2d26",
".v c #4a2e20",
".w c #4a2f26",
".x c #4c2e20",
".y c #4d2e22",
".z c #4f423c",
".A c #523126",
".B c #523224",
".C c #553226",
".D c #553228",
".E c #59372c",
".F c #593826",
".G c #5a3428",
".H c #5b3328",
".I c #5b3424",
".J c #5b3726",
".K c #5b382e",
".L c #5b3b2c",
".M c #5c3428",
".N c #5d332a",
".O c #5d3628",
".P c #5e392a",
".Q c #5e3b26",
".R c #63372c",
".S c #633830",
".T c #653a2a",
".U c #654438",
".V c #66534f",
".W c #674530",
".X c #675851",
".Y c #683b28",
".Z c #69402c",
".0 c #6d4630",
".1 c #6f482e",
".2 c #70432c",
".3 c #704934",
".4 c #715645",
".5 c #72452e",
".6 c #724d32",
".7 c #734a30",
".8 c #734b34",
".9 c #744932",
"#. c #74686c",
"## c #764832",
"#a c #79747e",
"#b c #7b6659",
"#c c #7d4c34",
"#d c #7d5436",
"#e c #7f4d38",
"#f c #7f4e34",
"#g c #866859",
"#h c #867161",
"#i c #89614b",
"#j c #898c96",
"#k c #8c6e58",
"#l c #8c7061",
"#m c #8e5736",
"#n c #8e6346",
"#o c #8e7059",
"#p c #8f5b3e",
"#q c #8f8188",
"#r c #90674b",
"#s c #92857b",
"#t c #92929a",
"#u c #93583a",
"#v c #938486",
"#w c #946440",
"#x c #96603c",
"#y c #96765d",
"#z c #968e87",
"#A c #96939a",
"#B c #97623c",
"#C c #986646",
"#D c #98919a",
"#E c #9899a0",
"#F c #996740",
"#G c #9a6540",
"#H c #9a9eab",
"#I c #9b7763",
"#J c #9e9ca4",
"#K c #9f623e",
"#L c #a2643e",
"#M c #a26640",
"#N c #a39895",
"#O c #a46842",
"#P c #a4a4af",
"#Q c #a56a48",
"#R c #a56b46",
"#S c #a66e46",
"#T c #a69c9e",
"#U c #a9b0c3",
"#V c #ac6b44",
"#W c #ac9e9a",
"#X c #adb6ca",
"#Y c #afb8ce",
"#Z c #b0abaf",
"#0 c #b0b3c1",
"#1 c #b29b7d",
"#2 c #b2a6a7",
"#3 c #b2a8a8",
"#4 c None",
"#5 c #b3a9a6",
"#6 c #b47952",
"#7 c #b4b1bb",
"#8 c #b5784c",
"#9 c #b5b7c8",
"a. c #ba784b",
"a# c #ba7e55",
"aa c #baacad",
"ab c #bc8c61",
"ac c #bca9a6",
"ad c #bcb4b9",
"ae c #bdaa9e",
"af c #bfb1a8",
"ag c #c08051",
"ah c #c1ac9e",
"ai c #c2946f",
"aj c #c29972",
"ak c #c5aca0",
"al c #c6885f",
"am c #c69874",
"an c #c7b7ad",
"ao c #c8915d",
"ap c #c98e67",
"aq c #cc8a54",
"ar c #cfb7a4",
"as c #d4935b",
"at c #d49761",
"au c #d8c195",
"av c #dda167",
"aw c #de9e67",
"ax c #dfa165",
"ay c #e09d65",
"az c #e19e65",
"aA c #e4af7a",
"aB c #ecc792",
"aC c #eda96b",
"aD c #edad6e",
"aE c #edb06f",
"aF c #edc991",
"aG c #efac6d",
"aH c #efcd98",
"aI c #f1b170",
"aJ c #f1c07a",
"aK c #f3bd78",
"aL c #f3be71",
"aM c #f3d498",
"aN c #f5b874",
"aO c #f5c178",
"aP c #f5c98c",
"aQ c #f7c27d",
"aR c #f9bc79",
"aS c #f9bc7e",
"aT c #f9be7c",
"aU c #f9c37e",
"aV c #f9cd92",
"aW c #fbc07b",
"aX c #fbc57f",
"aY c #fbd28b",
"aZ c #fdb76d",
"a0 c #fdb971",
"a1 c #fdd190",
"a2 c #fdd796",
"a3 c #fdde9e",
"a4 c #ffd38e",
"a5 c #ffdb92",
"a6 c #ffe2a2",
"a7 c #ffe396",
"a8 c #ffe492",
"a9 c #ffe5a2",
"b. c #ffe896",
"b# c #ffe89c",
"ba c #ffeeaa",
"bb c #fff0b2",
/* pixels */
"#4#4#4#4#4#4#4#4#4#4#4#4#4#4#z#h#h#s#4#4#4#4#4#4",
"#4#4#4#4#4#4#4#4#4#4#4#9aeauaFa3a9aH#1#Y#4#4#4#4",
"#4#4#4#4#4#4#4#4#4#4anaBa8aXaOaLaJaQaK#T#4#4#4#4",
"#4#4#4#4#4#4#4#4#4afaMb.aWaq#V#u#K#L#M#l#4#4#4#4",
"#4#4#4#4#4#4#4#4#9aPb#a7aT#8.I.H.N.E.R#.#4#4#4#4",
"#4#4#4#4#4#4#4#4ara4baa6aSaE.W.u.D.K.s#P#4#4#4#4",
"#4#4#4#4#4#4#4#7aAa2bbaYaz#c.l.i.X#a#H#4#4#4#4#4",
"#4#4#4#4#4#4#4ajaZa5a3ay##.y.w#U#4#4#4#4#4#4#4#4",
"#4#4#4#4#4#4#NaCa0a1aV#Q.o.d.p#4#4#4#4#4#4#4#4#4",
"#4#4#4#4#4#YaiaNaRaU#6.M.b.h.m#4#4#4#4#4#4#4#4#4",
"#4#4#4#4#4ahaIaDasag#O.C...g.e#U#4#4#4#4#4#4#4#4",
"#4#4#4#4#Uaba.#M#f.2#G#r.j.k.c#E#4#4#4#4#4#4#4#4",
"#4#4#4#4#J#x#m.8.0.F.5#Bam#I.4#4#4#4#4#4#4#4#4#4",
"#4#4#4#4#j#S.7.Z#d.3.B.O.J#i#0#4#4#4#4#4#4#4#4#4",
"#4#4#4#4#ja#.6#w.q#C.t.x.Lak#4#4#4#4#4#4#4#4#4#4",
"#4#4#4#4#tax.v#F.Q.T.Y.a.##D#4#4#4#4#4#4#4#4#4#4",
"#4#4#4#4#WaG.1.G#e.f.9.A.n#b#4#4#4#4#4#4#4#4#4#4",
"#4#4#4#4#2ap#p.z.U.V#5#o.S.r#U#4#4#4#4#4#4#4#4#4",
"#4#4#4#4#2al#n#4#4#4#4#X#g.P#A#4#4#4#4#4#4#4#4#4",
"#4#4#4#4#Zat#y#4#4#4#4#4#4#4#4#4#4#4#4#4#4#4#4#4",
"#4#4#4#4#3av#k#4#4#4#4#4#4#4#4#4#4#4#4#4#4#4#4#4",
"#4#4#4#4aaaw#v#4#4#4#4#4#4#4#4#4#4#4#4#4#4#4#4#4",
"#4#4#4#4acao#q#4#4#4#4#4#4#4#4#4#4#4#4#4#4#4#4#4",
"#4#4#4#4ad#R#P#4#4#4#4#4#4#4#4#4#4#4#4#4#4#4#4#4"
};
