/* XPM */
static char *hand[] = {
/* width height num_colors chars_per_pixel */
"    24    24       60            1",
/* colors */
". c #000000",
"# c #100800",
"a c #181008",
"b c #281410",
"c c #301c10",
"d c #382420",
"e c #412418",
"f c #492c20",
"g c #494538",
"h c #513020",
"i c #513420",
"j c #613828",
"k c #613c28",
"l c #614d38",
"m c #615949",
"n c #694128",
"o c #714930",
"p c #716151",
"q c #716d69",
"r c #795138",
"s c #865138",
"t c #865938",
"u c #867569",
"v c #8e5138",
"w c #8e8686",
"x c #965538",
"y c #965541",
"z c #965d41",
"A c #966d51",
"B c #9e6141",
"C c #9e6941",
"D c #9e7d69",
"E c #9e928e",
"F c #9e9696",
"G c #a66141",
"H c #a66949",
"I c #a69e9e",
"J c #ae7151",
"K c None",
"L c #b67149",
"M c #b67551",
"N c #b67d59",
"O c #be7149",
"P c #be7951",
"Q c #be8259",
"R c #be9671",
"S c #c77d51",
"T c #c78a59",
"U c #c78e61",
"V c #cf8259",
"W c #cf8a61",
"X c #cf9259",
"Y c #cf9a69",
"Z c #cfa271",
"0 c #cfa671",
"1 c #d79261",
"2 c #d79a69",
"3 c #d7aa71",
"4 c #df9a71",
"5 c #e7aa79",
/* pixels */
"KKKKKKKKKKKKKKKKKKKKKKKK",
"KKKKKKKKKKfSKKKKKKKKKKKK",
"KKKKKKKKKKcJKKKKGZKKKKKK",
"KKKKKlSIKKcCwKKDnHKKKKKK",
"KKKKKdMrKKcsAKKlnAKKKKKK",
"KKKKKgoNKKavCKKdBsKKKKKK",
"KKKKKqiUEKasJKKfStKKKUKK",
"KKKKKKf4RKgoNKKkTDKKeBDK",
"KKKKKKbQNEmn4EpkHIKuelKK",
"KKKKKKay3pEj1wcxLKKikqKK",
"KKKKKKEh4ZKnPFhACKjjiKKK",
"KKKKKKKcGXUSPSnvtixkgKKK",
"KKKKKKKmxVYVPLxG2BtfKKKK",
"KoOGFKKKvPWULPGGTMtwKKKK",
"Kmn1PwKKkHPSSHBzL1TKKKKK",
"KKuhVSKIoQQMLMooxSNKKKKK",
"KKKqoUYhsPYZQHBtsBHKKKKK",
"KKKKgCRWSYYZUWLsyHQKKKKK",
"KKKKKbS153200TOBzLJKKKKK",
"KKKKKqiQ45533YLzGPHKKKKK",
"KKKKKK#lJT430YOGGMvKKKKK",
"KKKKKKK#frJVWSGGBBrKKKKK",
"KKKKKKKK#biotBsookpKKKKK",
"KKKKKKKKKq#abc#..gKKKKKK"
};
