/* XPM */
static char *HandReach[] = {
/* width height num_colors chars_per_pixel */
"    24    24      208            2",
/* colors */
".. c #140a04",
".# c #8c92a4",
".a c None",
".b c #743e2c",
".c c #c4825c",
".d c #d4a27c",
".e c #7c625c",
".f c #4c4244",
".g c #fcdaa4",
".h c #e4a26c",
".i c #a46644",
".j c #44261c",
".k c #9ca2b4",
".l c #dcc29c",
".m c #c49674",
".n c #e4b684",
".o c #dccebc",
".p c #7c523c",
".q c #5c2e24",
".r c #ac866c",
".s c #a47a5c",
".t c #f4be84",
".u c #74727c",
".v c #643e2c",
".w c #dc9664",
".x c #8c5244",
".y c #bc926c",
".z c #4c3224",
".A c #c48a64",
".B c #acb2c4",
".C c #f4b27c",
".D c #2c1a0c",
".E c #c4aeac",
".F c #fceeb4",
".G c #542e2c",
".H c #5c3624",
".I c #8c5a3c",
".J c #a46e4c",
".K c #442e1c",
".L c #644a3c",
".M c #f4c694",
".N c #7c4a34",
".O c #4c4a4c",
".P c #d49264",
".Q c #f4ce9c",
".R c #fcc684",
".S c #dc9e74",
".T c #f4ae74",
".U c #ac9aa4",
".V c #d48a5c",
".W c #9c5e3c",
".X c #fce2a4",
".Y c #eca26c",
".Z c #b4a6a4",
".0 c #9c7a64",
".1 c #ecaa74",
".2 c #4c2624",
".3 c #ecba84",
".4 c #745e5c",
".5 c #b47a54",
".6 c #fcbe84",
".7 c #644634",
".8 c #e49a6c",
".9 c #f4ba84",
"#. c #3c2214",
"## c #945a3c",
"#a c #b46e54",
"#b c #f4d6a4",
"#c c #2c160c",
"#d c #a49aa4",
"#e c #d4aa7c",
"#f c #7c7a84",
"#g c #bcb2ac",
"#h c #f4caa4",
"#i c #1c1204",
"#j c #744634",
"#k c #cc825c",
"#l c #5c3e2c",
"#m c #e4a66c",
"#n c #acaab4",
"#o c #ecb284",
"#p c #84523c",
"#q c #64666c",
"#r c #bc825c",
"#s c #fcbe94",
"#t c #b49a84",
"#u c #543224",
"#v c #cc8a5c",
"#w c #b4bacc",
"#x c #f4b67c",
"#y c #341a0c",
"#z c #bc7e5c",
"#A c #dcae7c",
"#B c #ac6e4c",
"#C c #f4ca94",
"#D c #844a3c",
"#E c #5c4a4c",
"#F c #bc9e8c",
"#G c #fce6a4",
"#H c #fcbe8c",
"#I c #9c6644",
"#J c #1c0e04",
"#K c #a48674",
"#L c #744234",
"#M c #dca274",
"#N c #84624c",
"#O c #fcdea4",
"#P c #ac6a4c",
"#Q c #442a1c",
"#R c #cc9264",
"#S c #5c3224",
"#T c #845a3c",
"#U c #d4aa94",
"#V c #947e84",
"#W c #c4c2cc",
"#X c #bcaaa4",
"#Y c #b49684",
"#Z c #9c8a8c",
"#0 c #bca294",
"#1 c #5c524c",
"#2 c #4c2e24",
"#3 c #b4b6c4",
"#4 c #fcd294",
"#5 c #e4c69c",
"#6 c #7c727c",
"#7 c #e4ae84",
"#8 c #544e4c",
"#9 c #eca67c",
"a. c #b48e7c",
"a# c #6c3e2c",
"aa c #e49e6c",
"ab c #fcd69c",
"ac c #645654",
"ad c #6c4a3c",
"ae c #cc8a6c",
"af c #c47e5c",
"ag c #dc9a64",
"ah c #acb6cc",
"ai c #fcf2bc",
"aj c #5c3a24",
"ak c #d4b28c",
"al c #fcca8c",
"am c #ac9e9c",
"an c #eca674",
"ao c #b48e74",
"ap c #ecae7c",
"aq c #4c2a1c",
"ar c #b47e5c",
"as c #fcc27c",
"at c #3c261c",
"au c #643a2c",
"av c #945e3c",
"aw c #54362c",
"ax c #341e14",
"ay c #ac7254",
"az c #cc966c",
"aA c #140e04",
"aB c #c4865c",
"aC c #d4a67c",
"aD c #4c4644",
"aE c #a46a44",
"aF c #9ca6b4",
"aG c #7c563c",
"aH c #f4c294",
"aI c #c48e64",
"aJ c #946644",
"aK c #bc7a54",
"aL c #7c4e34",
"aM c #cc865c",
"aN c #fcc294",
"aO c #dcb27c",
"aP c #844e3c",
"aQ c #fcc28c",
"aR c #84664c",
"aS c #ac7a54",
"aT c #7c767c",
"aU c #e4a274",
"aV c #e4aa7c",
"aW c #f4b284",
"aX c #fceebc",
"aY c #8c5a44",
"aZ c #f4c69c",
"a0 c #d48a64",
"a1 c #9c5e44",
"a2 c #fce2ac",
"a3 c #ecaa7c",
"a4 c #ecba8c",
"a5 c #e49a74",
"a6 c #f4ba8c",
"a7 c #9c624c",
"a8 c #64362c",
"a9 c #e4a674",
"b. c #acaabc",
"b# c #f4b684",
"ba c #341a14",
"bb c #d49a6c",
"bc c #d48e64",
"bd c #fce6ac",
"be c #9c664c",
"bf c #fcdeac",
"bg c #442a24",
"bh c #5c322c",
"bi c #fcd29c",
"bj c #6c463c",
"bk c #fcd6a4",
"bl c #dc9a6c",
"bm c #5c3a2c",
"bn c #bc8664",
/* pixels */
".a.a.a.a.a.a.a#n#t.m.a.aaCak.a.a.a.a.a.a.a.a.a.a",
".a.a.a.a.a.ab..A.R#C#0#Z.Cal.o.a.a.a.a.a.a.a.a.a",
".aah.aah.a.a#V#vaQ#4.s#u.h.X.Q.aah.aah.aah.a.a.a",
".a.a.a.a.a.aaT#z#b.M#u#.ag.g#4.a.a.a.a.a.a.aah.a",
".a.a.aah.a.a.k.5.Capaqax.5.C.6.a.a#3am.E#W.a.a.a",
".a.B#Ya.#f.k.aa8##.x.D.jaqa#.P.l.a#Fav.Pbf.o.a.a",
".a.ra0.3.Nbm#d.k.f#c.z.n.m.Aaa.X#Y#p.q.S.F#5.a.a",
".a#K#ka6aRa7.d#f#E.D#a.6#Oalas.naP#..D#aaH#e.a.a",
".a#d.5#9ar.c.y#Sau.W.Vaa#x#xaa#T#Q#c#l.sa.#3.aah",
".a.aam#N#Q.Iaubg#j#R#raK#k#vaG.Gaq.v#maZ#g.a.a.a",
".a.a.a.a#1#.#y.zaKa9.P.J#p.b.zaqbhaE.w.C.d.a.a.a",
".a.aah.a.aaT#y#pbc.w.P#rad.j.2bg#2aubeaVaH.aah.a",
".a.a.a.a.a.a.e#p#BaMaI#I#2.2#u.Gaqauay.8.t.4.a.a",
".aah.a.aah.a.B#I.5a9.n.p.j.vav#jau.H.Nbnb##1.#.a",
".a.a.a.a.a.a.a.ia0#oaI.q#D#AaObnaYbj.p#PaaaR...u",
".a.a.a.a.a.a#d.c.8aQ.sa#aVaXaX#haz.J#T#I.caoaA.O",
".a.U#U#X#w.Zaeb#anaH#M#Ma2aiai#G.9bb#r.J.Waraq..",
".0.5aWaW.Ya6ababaNaNbibdbda2bkab.M#MaBaS.I#vaJaA",
"#n#L#Bbcaaa3bi#O.g#H#saWa4aW#7aWa9bl#Ta#aJaMaYat",
".aaF#Ea8.Ja5.1.T.CaUbb.c.A.Aafa1#p#lba#laL.i#Q#8",
".a.a.a.ubm.Lbm.7ajawajaj.H.Kaxax#c#cax.z.H.jax.k",
".aah.a.a.a.a.a.a.a.a.B#nacaA..aA#c#J#ibaax.f#6.a",
".a.a.aah.a.aah.a.a.a.a.a.a.a#q#q#qaD..#qaD.a.a.a",
".a.a.a.a.a.a.a.a.aah.a.aah.a.aah.a.a.a.a.a.a.a.a"
};
