/* XPM */
static char * kget_xpm[] = {
"40 40 256 2",
"  	c None",
". 	c #020204",
"+ 	c #66868C",
"@ 	c #96C2CC",
"# 	c #424244",
"$ 	c #BE845F",
"% 	c #AEE2EE",
"& 	c #864C3C",
"* 	c #B6A6A4",
"= 	c #212224",
"- 	c #CECECC",
"; 	c #80A2AC",
"> 	c #52676F",
", 	c #DEA274",
"' 	c #4E291E",
") 	c #A2D2DE",
"! 	c #4E4EFC",
"~ 	c #86664C",
"{ 	c #FEE4A9",
"] 	c #BE926C",
"^ 	c #8AB2BC",
"/ 	c #664838",
"( 	c #DEB27C",
"_ 	c #D2D2D4",
": 	c #8E8E8C",
"< 	c #0202FC",
"[ 	c #627274",
"} 	c #C4E6EC",
"| 	c #AE6D4C",
"1 	c #3A3AFC",
"2 	c #A0A2AB",
"3 	c #56362C",
"4 	c #425254",
"5 	c #323234",
"6 	c #121214",
"7 	c #BAC2C4",
"8 	c #BADAE4",
"9 	c #D69264",
"0 	c #CE845C",
"a 	c #B7EEFC",
"b 	c #B6B6B4",
"c 	c #FEC287",
"d 	c #EEA26C",
"e 	c #F6B380",
"f 	c #9A9EFC",
"g 	c #8B5A3E",
"h 	c #3E2316",
"i 	c #F6D6A4",
"j 	c #8E9A9C",
"k 	c #747277",
"l 	c #779AA4",
"m 	c #BEE2EC",
"n 	c #B2B3B4",
"o 	c #665654",
"p 	c #A8DAE6",
"q 	c #FEF2BC",
"r 	c #FBCA8F",
"s 	c #564E4C",
"t 	c #9E7A64",
"u 	c #AE7A54",
"v 	c #AAAAFC",
"w 	c #703E2C",
"x 	c #2E180C",
"y 	c #F6BB88",
"z 	c #B5EAF9",
"A 	c #8AAAB4",
"B 	c #7E625C",
"C 	c #4E3124",
"D 	c #A9AAAC",
"E 	c #C3C2C5",
"F 	c #D69A6C",
"G 	c #965D3C",
"H 	c #9CCAD4",
"I 	c #424A4C",
"J 	c #B68E79",
"K 	c #D6A37C",
"L 	c #DEAE7C",
"M 	c #E2E2FC",
"N 	c #764534",
"O 	c #66392C",
"P 	c #525254",
"Q 	c #FEDCA6",
"R 	c #7B7A7F",
"S 	c #160C04",
"T 	c #828284",
"U 	c #2A2A2C",
"V 	c #9E6646",
"W 	c #C69674",
"X 	c #90BAC4",
"Y 	c #CE8A60",
"Z 	c #D6B28C",
"` 	c #F6C495",
" .	c #EEAB79",
"..	c #A69AA4",
"+.	c #5E3026",
"@.	c #E69D6D",
"#.	c #B6E6F4",
"$.	c #8AA4A8",
"%.	c #626264",
"&.	c #FEEEB9",
"*.	c #AA8670",
"=.	c #1212FC",
"-.	c #C8F2FC",
";.	c #B9BABF",
">.	c #462B1F",
",.	c #AFDEEC",
"'.	c #BE7B57",
").	c #FEBE8A",
"!.	c #C6C6FC",
"~.	c #5A5A5C",
"{.	c #B2E6F4",
"].	c #E6A571",
"^.	c #AED2DC",
"/.	c #EEB284",
"(.	c #CEDCE0",
"_.	c #647E84",
":.	c #5E3E2C",
"<.	c #2E3A3C",
"[.	c #1A1A1C",
"}.	c #CAD6DC",
"|.	c #FED298",
"1.	c #7E757C",
"2.	c #829EA4",
"3.	c #A2BCC0",
"4.	c #361E14",
"5.	c #AEAAB6",
"6.	c #C9CACC",
"7.	c #9E624C",
"8.	c #A2CED9",
"9.	c #DEC29C",
"0.	c #7E533C",
"a.	c #FAFAFC",
"b.	c #6A6A6C",
"c.	c #BEAAA4",
"d.	c #5A5AE4",
"e.	c #B69A84",
"f.	c #DECEBC",
"g.	c #765E5C",
"h.	c #EEEEEC",
"i.	c #0A0A0C",
"j.	c #B2CAD4",
"k.	c #7E4B34",
"l.	c #9E8A8C",
"m.	c #A67A5C",
"n.	c #9A9A9C",
"o.	c #868684",
"p.	c #6E8E94",
"q.	c #C68B64",
"r.	c #86624C",
"s.	c #D6AA7C",
"t.	c #87523D",
"u.	c #AE7254",
"v.	c #7A8A8C",
"w.	c #A66E4C",
"x.	c #3A3A3C",
"y.	c #666A6C",
"z.	c #C6DEE4",
"A.	c #966644",
"B.	c #967E84",
"C.	c #EEBA88",
"D.	c #663E2C",
"E.	c #1E1204",
"F.	c #728A94",
"G.	c #A2C6CC",
"H.	c #5E524C",
"I.	c #DADADC",
"J.	c #4E4444",
"K.	c #4B4A4C",
"L.	c #B69684",
"M.	c #B6B6C4",
"N.	c #F6CCA0",
"O.	c #BEA294",
"P.	c #A6A6A4",
"Q.	c #DE9A68",
"R.	c #CE9468",
"S.	c #D68C62",
"T.	c #BEBEBC",
"U.	c #8E92A4",
"V.	c #5656FC",
"W.	c #C6835C",
"X.	c #262624",
"Y.	c #6E483C",
"Z.	c #E6B684",
"`.	c #B66E54",
" +	c #5E3927",
".+	c #BEB2AC",
"++	c #46261C",
"@+	c #969694",
"#+	c #B67B56",
"$+	c #361A10",
"%+	c #563027",
"&+	c #9E5E3F",
"*+	c #E6AB7F",
"=+	c #A66744",
"-+	c #96BAC4",
";+	c #FEC294",
">+	c #F6AE74",
",+	c #AE9D9F",
"'+	c #92A2A8",
")+	c #CEEEF4",
"!+	c #C67E5C",
"~+	c #AABABC",
"{+	c #C6AEAC",
"]+	c #BE9E8C",
"^+	c #DE9664",
"/+	c #5E4A4C",
"(+	c #1E0E04",
"_+	c #2E2E2C",
":+	c #B6D6DC",
"<+	c #E6C69C",
"[+	c #BACED4",
"}+	c #0606FC",
"|+	c #9EA6B4",
"1+	c #FEC684",
"2+	c #EEA678",
"3+	c #FED69E",
"4+	c #AEAEAC",
"5+	c #DE9E74",
"6+	c #9AC6D4",
"7+	c #22262C",
"8+	c #A6D6E4",
"9+	c #8DB6C2",
"0+	c #929294",
"a+	c #60767C",
"b+	c #C2EAF4",
"c+	c #46565C",
"d+	c #BEDEEC",
"e+	c #767674",
"f+	c #7A9EA7",
"g+	c #BCE6F0",
"h+	c #AADEEC",
"i+	c #87AEBA",
"j+	c #C6C6C4",
"k+	c #9ECEDC",
"l+	c #7E7E7C",
"m+	c #92BECC",
"n+	c #666668",
"o+	c #1616F4",
"p+	c #8A8A8C",
"q+	c #060604",
"r+	c #464644",
"s+	c #D6D6D4",
"t+	c #363634",
"u+	c #161614",
"v+	c #BAF2FC",
"w+	c #555654",
"x+	c #5E5E5C",
"y+	c #1E1E1C",
"z+	c #C6DADC",
"A+	c #FEFEFC",
"B+	c #6E6E6C",
"C+	c #0E0E0C",
"D+	c #9E9E9C",
"E+	c #3E3E3C",
"F+	c #4E4E4C",
"G+	c #D6AA94",
"                                                                                ",
"                                                            < < < < < < <       ",
"                                                        A+f < < < < < < < <     ",
"      % % % h+h+h+h+h+%                   h+% % h+h+h+)+A+!.< < < < < < < <     ",
"    z a a a a z z z z a {.              % z a a z z z -.A+A+M v !.A+A+1 < <     ",
"  % a > . . . q+i.C+C+7+a %           p l . . q+q+i.C+C+U '+-.{.  A+A+! < <     ",
"  p z 9+. q+C+6 u+y+y+> a %           h+a . q+i.6 u+[.y+> a a %   A+M < <       ",
"    % a q+C+6 y+U 5 <.[ z h+        H {.a q+i.6 y+X.5 a+a a %     A+! <         ",
"    h+z <.6 y+_+# F+~.v.z p       p h+z X i.6 y+5 E+$.a {.8+    a.v <           ",
"    h+a c+u+U # w+B+l+$.z ) i+m+h+z a X = C+y+_+w+8.z % k+      v < <           ",
"    ) {.; y+5 P B+o.D+~+z h+) h+z v+a+6 C+[.7+F.a z 8+        M < <             ",
"      h+f+y+t+w+R n.n j.a z z a A # = [.y+_.p a {.H         M o+<               ",
"      p k+y+t+~.l+2 7 z+a v+p j ~.E+7+X.8+a {.h+6+        a.! < < < < o+< <     ",
"      p a y+t+w+T P.E (.g+6.4+v.y.F+E+t+; a h+9+        h.M < < < < < < < <     ",
"      p z [.5 P l+2 E s+I.- b @+e+~.P F+y.z h+i+        A+v < < < < < < <       ",
"      p a [._+P e+D+E z.b+a T.D+T k y.B+R @ {.@         A+A+v M A+A+v d.        ",
"      h+z U U K.k n.;.} a a :+D 0+T o.p+@+D a p                                 ",
"      p z c+X.r+B+@+T.g+{.% a n D+@+@+2 4+;.:+D ,+W     K Z                     ",
"      h+a c+X.r+b.0+b z p 8+z j.2 D+2 n T.j+D q.r r O.l.e r f.                  ",
"      p z c+X.E+n+: n {.) @ % {.n.@+2 n j+- B.q.` |.t 3 , { N.                  ",
"      p z 7+= # n+: n {.H i+) a 3.o.0+D 7 - 1.#+i ` C h Q.Q N.                  ",
"      h+z C+= E+%.p+4+z k+f+6+{.,.R o.n.n 6.2 #+/. .' $+u e c     b ,+{+E       ",
"      h+a C+y+E+%.p+4+z k++ ; p z $.L.J R 2 _ O G t.x ++' D.9 9.  ]+G R.Q f.    ",
"      p z 6 = E+%.p+4+z k+    @ {.*.Y C.k. +n.D+J.x C Z.W q.5+Q L.0.+.5+&.<+    ",
"      p 9+6 = # n+p+n {.)     f+8+*.W.C.~ 7.K R s x | ).Q r 1+Z.& 4.x | ` K     ",
"      {.f+C+= E+n+: n z k+      m+..#+2+#+W.] +. +&+Y 5+e e 5+g >.x :.m.J ;.    ",
"    ) {.+ 6 X.r+y.0+b z k+      f+8+,+~ >.g  +>.Y.9 $ #+0 Y 0.C >.:.].<+.+      ",
"    p a 4 u+U r+B+@+n {.)         @ {.8+s h $+C #+].9 w.0.w C ' +.=+^+e K       ",
"    h+a <.u+_+F+e+D+T.m h+f+      l 8+a F.1.$+t.S.^+R.$ / ++++>.C O V *+C.      ",
"    p a i.[._+P e+D+T.{.% X         6+{.8+F+B 0.u.0 q.7.C ++%+%+'  +u.Q.` g.    ",
"    h+9+i.[.5 w+l+2 E z.a H         i+h+z E+~.A.u ].Z.0.++:.G N O 3 k.$ e P U.  ",
"    p _.C+y+t+~.T P.7 z+a k+          ) a _+F+=+S.Z.q.' & L ( $ r.w 0.=+@.r.S k ",
"    p i+f+; A 9+G.^.8 d+% 9+          ^ @ ; ..W.@.c m.w *+&.q N.W w.r.A.W.J S K.",
"      8+p h+p p 8+8+) k+i+        ..G+c.;.* Y e ].` , K { q &.{ y R.$ w.&+u ' S ",
"                                t u /./.d C.3+3+;+c |.{ { { i 3+r , $ u g Y A.C+",
"                                D N | S.@. .|.Q Q y )./.C./.L /., Q.g D.A.0 g h ",
"                                  |+s O =+Q. . .e , F W.q.q.!+7.0.:.$+:.0.V >.s ",
"                                      k :./+ +/  +3  + +3 >.4.4.E.x 4.C 3 ++4.2 ",
"                                                      5.o C+S S x (+u+$+4.J.k   ",
"                                                            n+n+n+r+S n+r+      "};
