/* XPM */
static char*md_delayed[]={
"20 14 8 1",
"# c #c3c3c3",
"f c #000000",
"b c #0000c0",
"e c #ffff00",
"a c #0000ff",
". c None",
"d c #f71042",
"c c #847b7b",
"..#.................",
"..##.........###....",
"..#ab.......#ab.....",
"...#abccccccab......",
"....cabddddab.......",
"...ccdabddabdcc.....",
"..ceeddababdc.......",
".ceffdddabdddcc.....",
".cef.cdababdc.......",
"cef..#abccabc.......",
"cef.#ab...#ab.......",
"cef#ab.....#ab......",
"..#ab.......#ab.....",
"..##.........##....."};
