/* XPM */
static char*md_finished[]={
"20 14 5 1",
"c c #000000",
"b c #ffff00",
". c None",
"a c #f71042",
"# c #847b7b",
"....................",
"....................",
"....................",
"......######........",
".....#aaaaaa#.......",
"...##aaaaaaaa##.....",
"..#bbaaaaaccc..c..c#",
".#bccaaaacc#cc.c.cc.",
".#bc.#aacc#.#ccccc..",
"#bc...##c#...#ccc...",
"#bc.....cc#.#ccccc..",
"#bc......cc#cc.c.cc.",
"..........ccc..c..c#",
"...................."};
