/* XPM */
static char *md_queued[]={
"26 14 31 1",
". c None",
"o c #000000",
"h c #202c39",
"A c #202c41",
"B c #292c39",
"g c #312c41",
"n c #4a5562",
"x c #525062",
"c c #627173",
"a c #62717b",
"i c #6a6d7b",
"b c #6a6d83",
"# c #6a717b",
"t c #6a757b",
"d c #6a7583",
"u c #737183",
"z c #a4aeb4",
"y c #a4aec5",
"e c #a4b2b4",
"f c #acb6bd",
"C c #dcdcdc",
"j c #dee6e6",
"w c #dee6ee",
"l c #e6e6ee",
"m c #e6eaee",
"k c #e6eaf6",
"p c #eeeaee",
"v c #eeeaf6",
"q c #eeeeee",
"s c #f6eaf6",
"r c #f6eef6",
"..........................",
"....#aba#c................",
"...defegeh................",
"bi#jklmnmnooo.............",
"pqprpqstsu................",
"vwvjkwmxmn................",
"efefyfzAeB................",
"ooocbaioboooo.............",
"...oefyozo................",
"....oooooo................",
"..........................",
"..........................",
"..........................",
".....C...................."};
