/* XPM */
static char*md_queued[]={
"20 14 7 1",
"# c #000080",
"e c #000000",
"d c #ffff00",
". c None",
"c c #f71042",
"b c #847b7b",
"a c #ffffff",
"....................",
".................#..",
"................a##.",
"......bbbbbb...####b",
".....bccccccb..###b.",
"...bbccccccccb####b.",
"..bddcccccccb.###b..",
".bdeeccccccccb##b...",
".bde.bccccccb.#b....",
"bde...bbbbbb.a##....",
"bde.........####....",
"bde..........##b....",
"..............b.....",
"...................."};
