/* XPM */
static char *md_scheduled[]={
"26 14 32 1",
". c None",
"d c #000000",
"i c #202c39",
"B c #202c41",
"C c #292c39",
"h c #312c41",
"p c #4a5562",
"y c #525062",
"c c #627173",
"a c #62717b",
"k c #6a6d7b",
"b c #6a6d83",
"# c #6a717b",
"u c #6a757b",
"e c #6a7583",
"v c #737183",
"A c #a4aeb4",
"z c #a4aec5",
"f c #a4b2b4",
"g c #acb6bd",
"D c #dcdcdc",
"l c #dee6e6",
"x c #dee6ee",
"n c #e6e6ee",
"o c #e6eaee",
"m c #e6eaf6",
"q c #eeeaee",
"w c #eeeaf6",
"r c #eeeeee",
"t c #f6eaf6",
"s c #f6eef6",
"j c #ffffff",
"..........................",
"....#aba#c..........ddd...",
"...efgfhfi.........djjjd..",
"bk#lmnopopddd.....djjdjjd.",
"qrqsqrtutv.......djjjdjjjd",
"wxwlmxoyop.......djjddjjjd",
"fgfgzgABfC.......djjjddjjd",
"dddcbakdbdddd.....djjjjjd.",
"...dfgzdAd.........djjjd..",
"....dddddd..........ddd...",
"..........................",
"..........................",
"..........................",
".....D...................."};
