/* XPM */
static char*retrying[]={
"20 14 7 1",
"a c #000080",
"e c #000000",
"d c #ffff00",
". c None",
"c c #f71042",
"b c #847b7b",
"# c #ffffff",
"....................",
"................##..",
"...............#aab.",
"......bbbbbb..#aaaab",
".....bccccccb.aa.aab",
"...bbccccccccbb..aab",
"..bddcccccccb....ab.",
".bdeeccccccccbb#aa..",
".bde.bccccccb.#aab..",
"bde...bbbbbb.#aaaaab",
"bde...........aaaaab",
"bde.................",
"....................",
"...................."};
