/* XPM */
static char * HandOpen_xpm[] = {
"48 48 61 1",
" 	c None",
".	c #861775D669A6",
"X	c #B6DA75D65144",
"o	c #C71B8A285965",
"O	c #A6999E799E79",
"+	c #49242CB22081",
"@	c #9658555538E3",
"#	c #C71B7DF75144",
"$	c #9E797DF769A6",
"%	c #8E3886178617",
"&	c #38E324922081",
"*	c #8617514438E3",
"=	c #9E7992488E38",
"-	c #BEFB965871C6",
";	c #30C21C711040",
":	c #618538E328A2",
">	c #AEBA71C65144",
",	c #9E7961854103",
"<	c #96586DB65144",
"1	c #A69961854103",
"2	c #C71B8E386185",
"3	c #CF3CA28971C6",
"4	c #71C66DB669A6",
"5	c #514430C22081",
"6	c #A69969A64924",
"7	c #9E7996589658",
"8	c #514434D32081",
"9	c #8E38514438E3",
"0	c #CF3C82075965",
"q	c #BEFB79E75144",
"w	c #61854D3438E3",
"e	c #410324921861",
"r	c #9E7969A64103",
"t	c #69A6410328A2",
"y	c #79E7514438E3",
"u	c #28A214511040",
"i	c #8617596538E3",
"p	c #B6DA7DF75965",
"a	c #71C661855144",
"s	c #BEFB82075965",
"d	c #965855554103",
"f	c #4924451438E3",
"g	c #71C6492430C2",
"h	c #186110400820",
"j	c #618530C22081",
"k	c #618559654924",
"l	c #104008200000",
"z	c #DF7D9A6971C6",
"x	c #CF3C8A286185",
"c	c #61853CF328A2",
"v	c #D75C9A6969A6",
"b	c #D75C92486185",
"n	c #D75CAAAA71C6",
"m	c #B6DA71C64924",
"M	c #E79DAAAA79E7",
"N	c #96585D754103",
"B	c #BEFB71C64924",
"V	c #CF3C92485965",
"C	c #CF3CA69971C6",
"Z	c #CF3C9A6969A6",
"A	c #000000000000",
"                                                ",
"                    .XoO                        ",
"                   O+@#$                        ",
"                   %&*X$       =$--O            ",
"                   $;:>,       <123=            ",
"          4<$O     .;5667     O890q<            ",
"          w6#-O    $;er>%     $5tq6y            ",
"          uiqp.    %u&*r$     a&ts6a            ",
"          &5Xsy7   %;+*><     w&ts<.            ",
"          8;dX<$   %u:9><     8+ysr$            ",
"          f;gpp.    hj9Xr    O&:,p*7            ",
"          k;:>pw    u5iX>%   %egssiO     O=O    ",
"          4h8s2$=   h+*>>.   .+*#pi      d2-    ",
"          %l:sz2a   8+g,$a   kj@xp<     kg#p%   ",
"           l+1zx-   f&gppy   +c,o6$    %et,*$   ",
"           &&*vz-7  keyxva  7&c,pr%    fe:iwO   ",
"           fucszpi= k&tbz<= a&c@6rO   .;etw4    ",
"           4le>zb-4 %&cqz-% f8*,,*   7+5ewfO    ",
"            h;dnn-a =&:6b-% ;c@Xm<   a8tc+4     ",
"            f;yxMz-O ;:N2n.OetdX6<  a+8gg8O     ",
"            =l5>zb3O ft9qn745:<>r. a:j:c8k      ",
"             &eyB0b-%8y6B2-w5c*,i=%5*y:8&7      ",
"             4;c1#VC2s##qq#Xtt96i48g@9c;f       ",
"              ;jN#23C2x#qBB19@Bb-wc,d*t&7       ",
"   %          k5@B0bZ20Bq0m6@912v#,,ig+4        ",
" =wi@*<O      759X0VVZxBB0B1@@6#xqX,*tf         ",
" 4gNBB1i7      w91q0x22Bmqq61N1qo#Xoi8%         ",
" %;cqb#BX%     4g1BB0x2#BBm6,,NX02bb2<          ",
"  k;tXbbq1%    %cd6Bq####m6,,NN1m0bbo<          ",
"  Owh51vbB,7   kg9d666XBqq699@NN1qbv2<          ",
"    .u5N0x#-  O8g6s2ssX6mmX6gcgg@1#bpi          ",
"     4lt1zvZ<a8jt6qbC-2X>X>mNgcjcgd#>a          ",
"      4ug#22Z*55*1qoZC3Zss6>,ii**9,p6a          ",
"       4lcs2ZVx1#oZZ2vC3x#0X6ig*@1mq#<          ",
"        flr2-ZxB#xZ-Z-3C2ox#m@**d16Xs<          ",
"         &e>2-20vv-ZZ-CC3xx#q,ddd16sXi          ",
"         %ut#CbbMMnCv3CCC2oqB1,@N6mo>i          ",
"          u&dsbzMMMMMnCCn-2oX6,d16Xx>.          ",
"          4h8isbzMMMMMnnn3Zxm6N,11qo6a          ",
"           &&:i>#2zMMMnnvC2xBm1,N1qs6w          ",
"           %l;w9>sobzMnnCCZ0Bm1111XX9k          ",
"            4A;c*rsx#bCMzv20m6111166i.          ",
"             4lh+:yN>s0oxx#0111,,N,,y4          ",
"              4Ahe8cg,>XXqqB1N@,Nd@it7          ",
"               %lAu;8cg*ii,1*ggggtc:a           ",
"                4hAh;+8:ccg*:5e5555fO           ",
"                  4fllhhu;;ulAAAAAfO            ",
"                     =%ffhAAA&ff4=              "};
