/* XPM */
static char *target_hand3[] = {
/* width height num_colors chars_per_pixel */
"    48    48       64            1",
/* colors */
". c #180c08",
"# c #201410",
"a c #301810",
"b c #301c10",
"c c #302018",
"d c #382018",
"e c #382420",
"f c #412420",
"g c #492c20",
"h c #513020",
"i c #513028",
"j c #593020",
"k c #593428",
"l c #593828",
"m c #594138",
"n c #613430",
"o c #614128",
"p c #615951",
"q c #693428",
"r c #694930",
"s c #714128",
"t c #714538",
"u c #794d30",
"v c #795138",
"w c #864d30",
"x c #865938",
"y c #867161",
"z c #8e8279",
"A c #965d38",
"B c #966541",
"C c #9e8e79",
"D c #9e9a96",
"E c #a66541",
"F c #a67149",
"G c #a67d59",
"H c #a6a2a6",
"I c #aea6a6",
"J c None",
"K c #b67149",
"L c #be7d51",
"M c #be9e8e",
"N c #c78651",
"O c #c78e69",
"P c #c79271",
"Q c #cf8a59",
"R c #cfb29e",
"S c #dfae79",
"T c #e7a261",
"U c #e7aa69",
"V c #efaa71",
"W c #efae69",
"X c #efba79",
"Y c #f7ba79",
"Z c #f7cb96",
"0 c #ffb669",
"1 c #ffbe79",
"2 c #ffcb86",
"3 c #ffd379",
"4 c #ffd78e",
"5 c #ffd796",
"6 c #ffdf96",
"7 c #ffe7a6",
"8 c #ffeb96",
"9 c #fff3b6",
/* pixels */
"JJJJJJJJJJJJJJJJJJJJJJJJJJJDzyyyyyDJJJJJJJJJJJJJ",
"JJJJJJJJJJJJJJJJJJJJJJJJzCPPXZ667ZPyDJJJJJJJJJJJ",
"JJJJJJJJJJJJJJJJJJJJJJMMZ99977777977GHJJJJJJJJJJ",
"JJJJJJJJJJJJJJJJJJJJHMZ7862433334546XzJJJJJJJJJJ",
"JJJJJJJJJJJJJJJJJJJRZ64831WXTUUUSWWWWFJJJJJJJJJJ",
"JJJJJJJJJJJJJJJJJJIR68840TTQKLKKQKNKKxIJJJJJJJJJ",
"JJJJJJJJJJJJJJJJJIX58862VQAEwsqswwwxAnCJJJJJJJJJ",
"JJJJJJJJJJJJJJJJJS448864VLqgjjnjnkknqfDJJJJJJJJJ",
"JJJJJJJJJJJJJJJJMZ589851YUNskkkknkmonfJJJJJJJJJJ",
"JJJJJJJJJJJJJJJJR2589751VXTO.iiiknmlfyJJJJJJJJJJ",
"JJJJJJJJJJJJJJJRX2679951ZYUF.eiiklkegHJJJJJJJJJJ",
"JJJJJJJJJJJJJJIM0Z779731QEAk#beedegpHJJJJJJJJJJJ",
"JJJJJJJJJJJJJJMSY26995XVNtgj##mzDJJJJJJJJJJJJJJJ",
"JJJJJJJJJJJJJDT0Y4676YTFqgkibzJJJJJJJJJJJJJJJJJJ",
"JJJJJJJJJJJJJGS00467ZVKuiggimJJJJJJJJJJJJJJJJJJJ",
"JJJJJJJJJJJJzO000257ZOAjgeecpJJJJJJJJJJJJJJJJJJJ",
"JJJJJJJJJJJHGV0Y14ZZYQqfbac#pJJJJJJJJJJJJJJJJJJJ",
"JJJJJJJJJJJzOWY115YPKwgdbce.pJJJJJJJJJJJJJJJJJJJ",
"JJJJJJJJJJHPWW2YX3VQxnfbcdf#pJJJJJJJJJJJJJJJJJJJ",
"JJJJJJJJJJMZ021WUTQLujf#bdf#pJJJJJJJJJJJJJJJJJJJ",
"JJJJJJJJJDYTTTQNKEFKEvf#.cd.ezJJJJJJJJJJJJJJJJJJ",
"JJJJJJJJJCTNKKKEtsxFFxd...##bpJJJJJJJJJJJJJJJJJJ",
"JJJJJJJJzGNNExAwoqouENMycllciCJJJJJJJJJJJJJJJJJJ",
"JJJJJJJJzEAEAuvvjooswANPRRxfxJJJJJJJJJJJJJJJJJJJ",
"JJJJJJJJyFuwurtrvgktorAFSMkoDJJJJJJJJJJJJJJJJJJJ",
"JJJJJJJJpLxrskvvBvakookkutwIJJJJJJJJJJJJJJJJJJJJ",
"JJJJJJJJpLBvuujoxOhdknjhgoRIJJJJJJJJJJJJJJJJJJJJ",
"JJJJJJJJpLFrxFrasFGdaiolkORJJJJJJJJJJJJJJJJJJJJJ",
"JJJJJJJJpOLovLxcgtEB#ahomRJJJJJJJJJJJJJJJJJJJJJJ",
"JJJJJJJJpSNbrBNoatsAg#acdzJJJJJJJJJJJJJJJJJJJJJJ",
"JJJJJJJJyWTkdoFBhfsqjdb#.tJJJJJJJJJJJJJJJJJJJJJJ",
"JJJJJJJJGWVF.iwFnaivjdeeaoIJJJJJJJJJJJJJJJJJJJJJ",
"JJJJJJJJGWVQbcntwg.kFunkffCJJJJJJJJJJJJJJJJJJJJJ",
"JJJJJJJJGOPQg.enkifCIGrnk#vJJJJJJJJJJJJJJJJJJJJJ",
"JJJJJJJJMOQKtzppvpHJRHxtniazJJJJJJJJJJJJJJJJJJJJ",
"JJJJJJJJMOQEvJJJJJJJJJDxqjdmJJJJJJJJJJJJJJJJJJJJ",
"JJJJJJJJGOLByJJJJJJJJJJHyvtCJJJJJJJJJJJJJJJJJJJJ",
"JJJJJJJJCULBzJJJJJJJJJJJJJJJJJJJJJJJJJJJJJJJJJJJ",
"JJJJJJJJMXLBCJJJJJJJJJJJJJJJJJJJJJJJJJJJJJJJJJJJ",
"JJJJJJJJCXQxCJJJJJJJJJJJJJJJJJJJJJJJJJJJJJJJJJJJ",
"JJJJJJJJPXNtCJJJJJJJJJJJJJJJJJJJJJJJJJJJJJJJJJJJ",
"JJJJJJJJPYLsJJJJJJJJJJJJJJJJJJJJJJJJJJJJJJJJJJJJ",
"JJJJJJJJMYQvJJJJJJJJJJJJJJJJJJJJJJJJJJJJJJJJJJJJ",
"JJJJJJJJPXFnJJJJJJJJJJJJJJJJJJJJJJJJJJJJJJJJJJJJ",
"JJJJJJJJPUFvJJJJJJJJJJJJJJJJJJJJJJJJJJJJJJJJJJJJ",
"JJJJJJJJRUwyJJJJJJJJJJJJJJJJJJJJJJJJJJJJJJJJJJJJ",
"JJJJJJJJMKtHJJJJJJJJJJJJJJJJJJJJJJJJJJJJJJJJJJJJ",
"JJJJJJJJCGHJJJJJJJJJJJJJJJJJJJJJJJJJJJJJJJJJJJJJ"
};
