/* XPM */
static char *target_hand3[]={
"48 48 282 2",
"Qt c None",
"bb c #000000",
"bn c #010101",
"bB c #020202",
"bL c #030303",
"bA c #040404",
"a5 c #050505",
"bC c #111111",
"bz c #121212",
"bD c #131313",
"by c #141414",
"bc c #171717",
"bf c #181818",
"bi c #191919",
"bo c #1a1a1a",
"a6 c #1b1b1b",
"ba c #202020",
"bh c #212121",
"a4 c #232323",
"br c #242424",
"aM c #262626",
"c# c #323232",
"aE c #353535",
"aN c #383838",
"bM c #3b3b3b",
"b5 c #3c3c3c",
"bZ c #3d3d3d",
"aL c #3e3e3e",
"bT c #414141",
"bH c #424242",
"aF c #464646",
"av c #484848",
"aD c #4d4d4d",
"aV c #4e4e4e",
"c. c #515151",
"ce c #555555",
"aw c #575757",
"b4 c #595959",
"bK c #5a5a5a",
"ai c #5b5b5b",
"aj c #5c5c5c",
"au c #5d5d5d",
"bS c #5e5e5e",
"bP c #606060",
"aU c #616161",
"ak c #696969",
"ah c #6e6e6e",
"bx c #717171",
"bE c #7f7f7f",
".m c #838383",
"bk c #848482",
".l c #848484",
"#A c #858585",
".0 c #868686",
".E c #878786",
".n c #878787",
"az c #888887",
"## c #888888",
".K c #898989",
"a2 c #8a8a87",
"cj c #8a8a89",
".t c #8a8a8a",
".D c #8b8b8b",
"#Z c #8c8c8a",
".k c #8c8c8c",
"#q c #8d8d8d",
".Z c #8e8e8e",
"bg c #8f8f8c",
"#E c #8f8f8e",
"#F c #8f8f8f",
"ca c #90908f",
"#h c #909090",
"bW c #919190",
"aa c #919191",
"a9 c #92928f",
".V c #929292",
"bd c #939390",
"aR c #939393",
".F c #949492",
"ae c #949494",
"co c #959592",
".u c #959595",
"#9 c #969696",
"a0 c #979797",
".o c #989896",
"#W c #989898",
"ao c #999999",
"bN c #9a9a98",
"as c #9a9a9a",
"a# c #9b9b9a",
"#O c #9b9b9b",
"b. c #9c9c99",
".C c #9c9c9c",
"bF c #9d9d98",
"#R c #9d9d9d",
"cf c #9e9e99",
".j c #9e9e9c",
"ay c #9e9e9e",
"#X c #9f9f9f",
"a. c #a0a09b",
".s c #a0a09e",
"#Q c #a0a09f",
"an c #a0a0a0",
"b6 c #a1a1a0",
".1 c #a1a1a1",
"aI c #a2a2a2",
"#V c #a3a3a3",
"a1 c #a4a4a4",
"ax c #a5a5a5",
"#B c #a6a6a0",
"a3 c #a6a6a2",
".J c #a6a6a3",
"aS c #a6a6a6",
"#r c #a7a7a2",
"bu c #a7a7a5",
"bj c #a7a7a7",
"ar c #a8a8a5",
"a8 c #a8a8a8",
"#i c #a9a9a4",
"aH c #a9a9a9",
"cr c #aaaaa5",
"cs c #aaaaa7",
".v c #aaaaaa",
".L c #ababab",
"aY c #acaca6",
"#3 c #acacac",
"aB c #adadad",
"b7 c #aeaea5",
"ag c #aeaeae",
"bt c #afafa6",
".p c #afafaa",
"ci c #afafad",
"#K c #afafaf",
"b2 c #b0b0af",
"#4 c #b0b0b0",
"ac c #b1b1b1",
"aP c #b2b2aa",
".B c #b2b2b2",
"ck c #b3b3aa",
"cn c #b3b3af",
"#j c #b3b3b3",
"cw c #b4b4ab",
".8 c #b4b4ad",
"cc c #b4b4af",
"b9 c #b4b4b1",
"bY c #b4b4b2",
"#L c #b4b4b4",
"#a c #b5b5b5",
"cq c #b6b6ad",
"ap c #b6b6ae",
"bV c #b6b6b3",
".7 c #b6b6b6",
"bp c #b7b7af",
"#J c #b7b7b7",
".i c #b8b8b3",
"aX c #b8b8b8",
"bQ c #b9b9af",
"aK c #b9b9b9",
"bw c #babab4",
"#. c #babab5",
".U c #bababa",
"bI c #bbbbb2",
"bR c #bbbbb5",
"aT c #bbbbbb",
"cm c #bcbcb3",
"am c #bcbcbc",
"#z c #bdbdbd",
"bJ c #bebeb9",
".w c #bebebe",
"be c #bfbfb7",
"cd c #bfbfbe",
"aO c #bfbfbf",
"#8 c #c0c0c0",
"#s c #c1c1bb",
"ct c #c1c1be",
"ad c #c1c1c1",
".d c #c2c2b9",
".G c #c2c2ba",
"b# c #c2c2c2",
"ch c #c3c3b9",
".c c #c3c3ba",
"bl c #c3c3bb",
".Y c #c3c3bd",
".A c #c3c3c3",
"aZ c #c4c4bc",
"at c #c4c4c4",
"aQ c #c5c5bd",
"a7 c #c5c5c5",
"cx c #c6c6ba",
".e c #c6c6bd",
"#1 c #c6c6be",
"aW c #c6c6c6",
"#P c #c7c7bd",
"aC c #c7c7c7",
"#G c #c8c8c8",
"cg c #c9c9bd",
".b c #c9c9c0",
".x c #c9c9c9",
".r c #cacac2",
"cu c #cacac7",
"aG c #cacaca",
"cv c #cbcbc7",
"al c #cbcbcb",
".z c #cccccc",
".f c #cdcdc4",
"#g c #cdcdcd",
"bX c #cecec2",
"#p c #cecece",
".q c #cfcfc5",
".y c #cfcfcf",
"#2 c #d0d0d0",
"cp c #d1d1c5",
".W c #d1d1c6",
".a c #d1d1c8",
"ab c #d1d1d1",
"cb c #d2d2c6",
"#7 c #d2d2d2",
"af c #d3d3c7",
"#m c #d3d3d3",
"#D c #d4d4c9",
".h c #d4d4ca",
"#n c #d4d4d4",
"b8 c #d5d5c9",
"#6 c #d5d5d5",
"b0 c #d6d6ca",
".M c #d6d6d6",
"#l c #d7d7d7",
"#Y c #d8d8d8",
"b1 c #d9d9cd",
".I c #d9d9ce",
"#N c #d9d9d9",
"aJ c #dadacd",
"bG c #dadace",
"#S c #dadada",
"#5 c #dbdbdb",
"bO c #dcdcd0",
"#T c #dcdcdc",
".2 c #dddddd",
"#0 c #deded1",
"#U c #dedede",
"bv c #dfdfd2",
"#M c #dfdfdf",
"cl c #e0e0d2",
".H c #e0e0d3",
"#x c #e0e0e0",
"bU c #e1e1d3",
".T c #e1e1e1",
"aA c #e2e2d4",
".g c #e2e2d5",
"#t c #e2e2e2",
".# c #e3e3d5",
".9 c #e3e3d6",
"#H c #e3e3e3",
"#C c #e4e4d6",
".X c #e4e4d7",
"#I c #e4e4e4",
"aq c #e5e5d7",
"#u c #e5e5e5",
"#y c #e6e6e6",
"#v c #e7e7e7",
"#k c #e8e8e8",
"#w c #e9e9e9",
"#o c #eaeaea",
".6 c #ebebeb",
"#d c #ececec",
"#e c #ededed",
"bm c #eeeeee",
"bs c #efefef",
".N c #f0f0f0",
"#b c #f1f1f1",
"#c c #f2f2f2",
"#f c #f3f3f3",
"bq c #f4f4f4",
".S c #f5f5f5",
".3 c #f6f6f6",
".4 c #f7f7f7",
".5 c #f8f8f8",
".O c #f9f9f9",
"b3 c #fafafa",
".R c #fbfbfb",
".P c #fcfcfc",
".Q c #fdfdfd",
"QtQtQtQtQtQtQtQtQtQtQtQtQtQtQtQtQtQtQtQtQtQtQtQtQtQtQtQtQtQtQtQtQtQtQtQtQtQtQtQtQtQtQtQtQtQtQtQt",
"QtQtQtQtQtQtQtQtQtQtQtQtQtQtQtQtQtQtQtQtQtQtQtQtQtQtQtQtQtQtQtQtQtQtQtQtQtQtQtQtQtQtQtQtQtQtQtQt",
"QtQtQtQtQtQtQtQtQtQtQtQtQtQtQtQtQtQtQtQt.#.a.b.c.d.e.f.gQtQtQtQtQtQtQtQtQtQtQtQtQtQtQtQtQtQtQtQt",
"QtQtQtQtQtQtQtQtQtQtQtQtQtQtQtQtQt.h.i.j.k.l.m.l.m.l.l.n.o.p.qQtQtQtQtQtQtQtQtQtQtQtQtQtQtQtQtQt",
"QtQtQtQtQtQtQtQtQtQtQtQtQtQt.g.r.s.t.n.u.v.w.x.y.y.z.A.B.C.D.E.F.G.HQtQtQtQtQtQtQtQtQtQtQtQtQtQt",
"QtQtQtQtQtQtQtQtQtQtQtQtQt.I.J.n.K.L.M.N.O.P.P.P.P.Q.P.R.S.T.U.V.l.o.WQtQtQtQtQtQtQtQtQtQtQtQtQt",
"QtQtQtQtQtQtQtQtQtQtQt.X.Y.Z.0.1.2.3.4.5.4.5.5.5.5.4.4.5.5.5.4.6.7.t.l.8.9QtQtQtQtQtQtQtQtQtQtQt",
"QtQtQtQtQtQtQtQtQtQt.X#..n###a.6#b#c#c#d#d#e#e#e#e#e#e#e#e#f#f#c.N#g#h.m#i.#QtQtQtQtQtQtQtQtQtQt",
"QtQtQtQtQtQtQtQtQtQt#..n.n#j#k.6#d#e#d#l#m#n#n#n#n#n#n#n#l#e#e#d#d#o#p#q.l#rQtQtQtQtQtQtQtQtQtQt",
"QtQtQtQtQtQtQtQtQt#s##.n.1#t#u#v#v#k#w.T#x#x#x#x#x#x#x#x#x#k#v#v#v#y#u#z.t#A#B#CQtQtQtQtQtQtQtQt",
"QtQtQtQtQtQtQtQt#D#E###F#G.2#x.T#H#I#I#J#K#K#K#K#K#K#K#K#L#x#H#H#t#x#M#N#O.K.m#PQtQtQtQtQtQtQtQt",
"QtQtQtQtQtQtQt.g#Q.0.k#R#m#N#S#T#U#x#x#V#W#W#W#W#W#W#W#W#X.2#x#U#T#S#Y#l#a#F.K#Z#0QtQtQtQtQtQtQt",
"QtQtQtQtQtQtQt#1##.D.V.L#2#m.M#Y#S#T#T#j.L#3#3#3#3#3.L.L#4#5#T#5#S#l#6#7#8#9.Z.Ka.QtQtQtQtQtQtQt",
"QtQtQtQtQtQt.#a#.taa#W#4#gab#m.M#Y#S#5#J#4acac.B.B.B#4#4#a#N#5#N#l#nab#pad#Oae#q.EafQtQtQtQtQtQt",
"QtQtQtQtQtQt#1.D#q#9.Cag#G.z.y#7#n#Y.Mahaiaiaiajajajaiaiakab#l.M#n#2#galamanaoaa.KapQtQtQtQtQtQt",
"QtQtQtQtQtaqar.Kaaas.1.Lat.x#g#2#m#6.Mauavavavavavavavavaw#p#l#6#7.y.z#G.7axay#9#qazaAQtQtQtQtQt",
"QtQtQtQtQt.gaa#q#9ayaxaB.waC.z.y#7#n#maDaEaEaEaEaEaEaEaEaFal#6#m#2#gaGat#jaHaIas.V#AaJQtQtQtQtQt",
"QtQtQtQtQt.f#q#hasaI.vacaKatal#pab#n#7aLaMaMaMaMaMaMaMaMaNaG#6#7#2.z#GaO#LaBaxay#9#qaPQtQtQtQtQt",
"QtQtQtQtQtaQ#qaR#RaSag#aaT.AaG#p#7#n#7aUaDaVaVaVaVaVaVaVajal#n#m#2.zaW.waX.B.v.1ao#haYQtQtQtQtQt",
"QtQtQtQtQtaZ.Z#9anaHacaX.w.AaG#pab#n#nao#haaaaaaaa#h#h#ha0ab#6#7.y.zaW#8aT#LaBa1#O.Va2QtQtQtQtQt",
"QtQtQtQtQta3aa#Oa1ag#aam.A.x#gab#6.M#6a4a5a5a5a5a5a5a5a5a6.x#l#6#7.yaGa7aOaK#4a8#Xa0a9QtQtQtQtQt",
"QtQtQtQtQtb.aeaya8.BaKb##G#g#m#l#S#5#5babbbbbbbbbbbbbbbbbc#p#T#S#l#n.y.xatam#a#3aIaobdQtQtQtQtQt",
"QtQtQtQtQtbe#9.1.L#L.waC#g#m#N#T#M#t#xbabbbbbbbbbbbbbbbbbf#7.T#M.2#N#n.y#G#8aX#Ka1asbgQtQtQtQtQt",
"QtQtQtQtQtaQ#Wa1#4.Uat#p#n#N#M#t#u#v#Ibhbbbbbbbbbbbbbbbbbi#N#v#u#t#U#S#n#gataTacbj#RbkQtQtQtQtQt",
"QtQtQtQtQtbl#Rbjac.waG#m#5.T#y#o#ebm#ea4bnbnbnbnbnbnbnbnbo#Mbm#d#w#u#M#Nab#GaO#L.vaybpQtQtQtQtQt",
"QtQtQtQtQt#0aya8.7ad#p#Y#x#v#e.N#fbq#cbrbnbnbnbnbnbnbnbna6#Ibq#cbs.6#u.2#6alad#a.vaobtQtQtQtQtQt",
"QtQtQtQtQt.#bu.v.7.A#2#5#u#o#t#I#y#v#ubhbbbbbbbbbbbbbbbbbi#Y#y#I#t#y#w#x#l#gad#LaH.KbvQtQtQtQtQt",
"QtQtQtQtQtQtbw.L#J.Aab.2#y#obxbybzbzbzbAbbbbbbbbbbbbbbbbbBbCbzbCbDbE#o#t#l.zaO.BaSbFQtQtQtQtQtQt",
"QtQtQtQtQtQtbGaB#J.A.y#5#ybm#uaUbAbnbnbnbbbbbbbbbbbbbbbbbbbnbbbnbH.M#w#x#naCaT#K#RbIQtQtQtQtQtQt",
"QtQtQtQtQtQtQtbJ.7ad#g#Y#t.6#c#obKbLbnbbbbbbbbbbbbbbbbbbbbbnbBbM#S#e#u#5#pb##J#3bNQtQtQtQtQtQtQt",
"QtQtQtQtQtQtQtbO#L#8.x#n.2#ybs.3#obPbAbBbbbbbbbbbbbbbbbbbnbBbH#Sbs#k#U#maC#z.BasbQQtQtQtQtQtQtQt",
"QtQtQtQtQtQtQtQtbRaTaW#2#N#t#o#c.3#vbSbLbbbbbbbbbbbbbnbnbnbT.Mbs#k#x.Mal#8.7.vbFbUQtQtQtQtQtQtQt",
"QtQtQtQtQtQtQtQt.XbVad#g#6#U#y#dbq.4#dawbBbnbbbbbbbbbnbnaN#N.N#o#t#Y#pat.U#KbWbXQtQtQtQtQtQtQtQt",
"QtQtQtQtQtQtQtQtQtbGbYa7#m#T#I#d#b.3.5#dbKbBbBbbbbbnbBbZ#5#b.6#I#5abaCam#j#qb0QtQtQtQtQtQtQtQtQt",
"QtQtQtQtQtQtQtQtQtQtb1b2aG#5#H.6.N.S.Ob3#ob4bLbnbnbnb5#Ybqbs#k#x#l#g.A#Jb6b7QtQtQtQtQtQtQtQtQtQt",
"QtQtQtQtQtQtQtQtQtQtQtb8b9al#t#o.Nbq.4b3.R#ec.bnbnc#.2.4#fbm#v.2#maGaTcacbQtQtQtQtQtQtQtQtQtQtQt",
"QtQtQtQtQtQtQtQtQtQtQtQtQtcccd#xbsbq.5.O.R.R.NceaN#H.O.4#f#e#y.2#2agcfcgQtQtQtQtQtQtQtQtQtQtQtQt",
"QtQtQtQtQtQtQtQtQtQtQtQtQtQtchci.x#w.S.O.R.R.R#e#u.R.O.4#f#e.TatcjckclQtQtQtQtQtQtQtQtQtQtQtQtQt",
"QtQtQtQtQtQtQtQtQtQtQtQtQtQtQtQtcmcn.7#Tbm.3b3b3b3.5.S#e#T#acobQcpQtQtQtQtQtQtQtQtQtQtQtQtQtQtQt",
"QtQtQtQtQtQtQtQtQtQtQtQtQtQtQtQtQtQt#CcqcrcsctcucvctcsaYcwcxQtQtQtQtQtQtQtQtQtQtQtQtQtQtQtQtQtQt",
"QtQtQtQtQtQtQtQtQtQtQtQtQtQtQtQtQtQtQtQtQtQtQtQtQtQtQtQtQtQtQtQtQtQtQtQtQtQtQtQtQtQtQtQtQtQtQtQt",
"QtQtQtQtQtQtQtQtQtQtQtQtQtQtQtQtQtQtQtQtQtQtQtQtQtQtQtQtQtQtQtQtQtQtQtQtQtQtQtQtQtQtQtQtQtQtQtQt",
"QtQtQtQtQtQtQtQtQtQtQtQtQtQtQtQtQtQtQtQtQtQtQtQtQtQtQtQtQtQtQtQtQtQtQtQtQtQtQtQtQtQtQtQtQtQtQtQt",
"QtQtQtQtQtQtQtQtQtQtQtQtQtQtQtQtQtQtQtQtQtQtQtQtQtQtQtQtQtQtQtQtQtQtQtQtQtQtQtQtQtQtQtQtQtQtQtQt",
"QtQtQtQtQtQtQtQtQtQtQtQtQtQtQtQtQtQtQtQtQtQtQtQtQtQtQtQtQtQtQtQtQtQtQtQtQtQtQtQtQtQtQtQtQtQtQtQt",
"QtQtQtQtQtQtQtQtQtQtQtQtQtQtQtQtQtQtQtQtQtQtQtQtQtQtQtQtQtQtQtQtQtQtQtQtQtQtQtQtQtQtQtQtQtQtQtQt",
"QtQtQtQtQtQtQtQtQtQtQtQtQtQtQtQtQtQtQtQtQtQtQtQtQtQtQtQtQtQtQtQtQtQtQtQtQtQtQtQtQtQtQtQtQtQtQtQt",
"QtQtQtQtQtQtQtQtQtQtQtQtQtQtQtQtQtQtQtQtQtQtQtQtQtQtQtQtQtQtQtQtQtQtQtQtQtQtQtQtQtQtQtQtQtQtQtQt"};
