/* XPM */
static char *tool_offline_mode[]={
"22 22 5 1",
". c None",
"# c #000000",
"c c #00ff00",
"b c #808000",
"a c #c00000",
"......................",
"......................",
"......................",
"........#######.......",
"......###########.....",
".......#########......",
".......###aaa###......",
".......####a####......",
"........#######.......",
"......###########.....",
".......###bbb###......",
".......####b####......",
".......#########......",
"........###c###.......",
"......####ccc####.....",
".......###ccc###......",
".......####c####......",
".......#########......",
"........#######.......",
"......................",
"......................",
"......................"};
