/* XPM */
static char *magick[] = {
/* columns rows colors chars-per-pixel */
"20 20 70 1",
"  c Gray0",
". c #020002000200",
"X c Gray1",
"o c #040004000400",
"O c Gray2",
"+ c #060006000600",
"@ c #070007000700",
"# c Gray3",
"$ c Gray4",
"% c #0e000e000e00",
"& c Gray6",
"* c #100010001000",
"= c #110011001100",
"- c #130013001300",
"; c Gray8",
": c #150015001500",
"> c #160016001600",
", c #280028002800",
"< c Gray16",
"1 c #2a002a002a00",
"2 c Gray17",
"3 c #2d002d002d00",
"4 c #310031003100",
"5 c #320032003200",
"6 c Gray20",
"7 c Gray21",
"8 c #370037003700",
"9 c #390039003900",
"0 c #3a003a003a00",
"q c #3c003c003c00",
"w c Gray26",
"e c Gray27",
"r c #460046004600",
"t c Gray28",
"y c Gray30",
"u c #4e004e004e00",
"i c #510051005100",
"p c #530053005300",
"a c Gray33",
"s c #550055005500",
"d c #580058005800",
"f c #5a005a005a00",
"g c #5b005b005b00",
"h c #5d005d005d00",
"j c #5f005f005f00",
"k c Gray38",
"l c #650065006500",
"z c #670067006700",
"x c #680068006800",
"c c #6a006a006a00",
"v c Gray42",
"b c Gray45",
"n c #760076007600",
"m c #770077007700",
"M c #7b007b007b00",
"N c #880088008800",
"B c Gray54",
"V c Gray55",
"C c Gray56",
"Z c #900090009000",
"A c #920092009200",
"S c #980098009800",
"D c Gray62",
"F c #a500a500a500",
"G c #ca00ca00ca00",
"H c #dd00dd00dd00",
"J c #e200e200e200",
"K c #e700e700e700",
"L c Gray91",
"P c None",
/* pixels */
"PPPPPPPPPPPPPPPPPPPP",
"PPPPPPPPPPPPPPPPPPPP",
"PPPPPPPPPPPPPPPPPPPP",
"PPPPPPPPPPPPPPPPPPPP",
"PPPPPPPPPPPPPPPPPPPP",
"PPPcipPPPPPPPPPmsPPP",
"PPc6 .0PPPPPPPM-,PPP",
"PPc   7PPPPPPPa vPPP",
"PPc  %>PPPPPPyAFPPPP",
"PPc2 $@PPPPP&OvPPPPP",
"PPPSZHLPPP; +fPPPPPP",
"PPn   o:e@ #gPPPzNPP",
"PP*       3hPPVd89PP",
"PPk     t#xCj  lPPPP",
"PPPq    Gb   X5PPPPP",
"PPPM=   BJ@ufbPPPPPP",
"PPPPw   <K%rPPPPPPPP",
"PPPP1   Dc=CPPPPPPPP",
"PPPPO  45$;PPPPPPPPP",
"PPPPPPPPPPPPPPPPPPPP"
};
