/* XPM */
static char *magick[] = {
/* columns rows colors chars-per-pixel */
"22 22 32 1",
"  c Gray0",
". c #280028002800",
"X c #580044003b00",
"o c #420044004200",
"O c #500052005000",
"+ c #530053005300",
"@ c #580058005800",
"# c #640068006400",
"$ c #6a006e006a00",
"% c #78007c007800",
"& c #78007d007800",
"* c #78007e007800",
"= c Gray50",
"- c #00000000c000",
"; c Blue",
": c #800068005500",
"> c #ab0085006c00",
", c #800080008000",
"< c #8c0092008c00",
"1 c #920099009200",
"2 c #97009e009700",
"3 c #a000a800a000",
"4 c #b700bd00b700",
"5 c #e100b4009000",
"6 c #e700bb009400",
"7 c #eb00b7009400",
"8 c #ef00bf009800",
"9 c #f100bd009800",
"0 c #ff00c800a000",
"q c #cf00d300cf00",
"w c #e700e900e700",
"e c None",
/* pixels */
"eeeeeeeeeeee@@@@@@eeee",
"eeeeeeeeee@@00000>>@ee",
"eeeeeeeee@000070000>@e",
"eeeeeeee@00>>>>>>>600e",
"eeeeeee@0>>5000000000e",
"eeeeee@8>000000000000e",
"e=======@XX    >90000e",
"e--------@@@    >0000e",
"e---wqqqqq@,     >000e",
"e---qo33O# ,       60e",
"e---q$OOO3 ,        >e",
"e---q2..13 ,   @   X:e",
"e---qo<<.< ,   ee@@@Xe",
"e---q&33<* ,@@eeeeeeee",
"e---+      ,@eeeeeeeee",
"e----------,@eeeeeeeee",
"e@@@@@@@@@@@@eeeeeeeee",
"e33333333333@eeeeeeeee",
"e33333333333@eeeeeeeee",
"e%%%%%%%%%43@eeeeeeeee",
"e;;;;;;;;;q3@eeeeeeeee",
"eeeeeeeeeeeeeeeeeeeeee"
};
