/* XPM */
static char *magick[] = {
/* columns rows colors chars-per-pixel */
"22 22 4 1",
"  c Gray0",
". c Gray19",
"X c Blue",
"o c None",
/* pixels */
"oooooooooooooooooooooo",
"oooooooooooooooooooooo",
"oooooooooooooooooooooo",
"ooooooXXX.oooXXX.ooooo",
"oooooXXX..ooXXX..ooooo",
"oooooXXX..ooXXX..ooooo",
"oooooXXX..ooXXX..ooooo",
"oooooXXX..ooXXX..ooooo",
"oooooXXX..ooXXX..ooooo",
"oooooXXX..ooXXX..ooooo",
"oooooXXX..ooXXX..ooooo",
"oooooXXX..ooXXX..ooooo",
"oooooXXX..ooXXX..ooooo",
"oooooXXX..ooXXX..ooooo",
"oooooXXX..ooXXX..ooooo",
"oooooXXX..ooXXX..ooooo",
"oooooXXX..ooXXX..ooooo",
"oooooXXX.oooXXX.oooooo",
"oooooooooooooooooooooo",
"oooooooooooooooooooooo",
"oooooooooooooooooooooo",
"oooooooooooooooooooooo"
};
