/* XPM */
static char *magick[] = {
/* columns rows colors chars-per-pixel */
"20 20 58 1",
"  c Gray0",
". c #000004000000",
"X c #180010000800",
"o c #30001c001000",
"O c #280024001800",
"+ c #300030002800",
"@ c #41002c001800",
"# c #51003c001800",
"$ c #410038003800",
"% c #71004d002800",
"& c #51004d004100",
"* c #690051004100",
"= c #790059004100",
"- c #790065005100",
"; c #71006d006900",
": c #710071007100",
"> c #860055002000",
", c #960065002000",
"< c #960061003000",
"1 c #a60079003000",
"2 c #b6007d002800",
"3 c #9e0069004100",
"4 c #9e0071005100",
"5 c #860071006100",
"6 c #8e0071006100",
"7 c #860079007900",
"8 c #be0092003000",
"9 c #9e0082007100",
"0 c #be0086004900",
"q c #be0092006900",
"w c #d7009e003800",
"e c #df0092005900",
"r c #cf009e007100",
"t c #df009a006100",
"y c #df00a6007100",
"u c #ef00b2004100",
"i c #8e0086008600",
"p c #96008a008600",
"a c #9e0092008e00",
"s c #9e009a009e00",
"d c #a6009e009e00",
"f c #b600a2009600",
"g c #a600aa00a600",
"h c #c700a6008e00",
"j c #df00b2008e00",
"k c #df00ba009e00",
"l c #c700ba00b600",
"z c #e700ba008600",
"x c #e700ba009e00",
"c c #e700c300a600",
"v c #f700cb00ae00",
"b c #f700d300b600",
"n c #e700d300cf00",
"m c #ff00db00c700",
"M c #ff00e300d700",
"N c #ff00eb00df00",
"B c #f700ef00e700",
"V c None",
/* pixels */
"VVVVVVVVVVVVVVVVVVVV",
"VVVVVVVVVVVVVVVVVVVV",
"VVVVVV-**&*****VVV4V",
"VVw###OO@@#@@O@OOOu=",
"Vg4waV6<465--@=s+%oa",
"V7<o.yd8ppu=p8qtxzzt",
"s&l1q-p2$$,>$,<6-fnm",
"7$9wbVVVVf,>VVVVVVV7",
"diit&VVVVf,>VVVVVVVV",
"V;dVVVVVVf,>VVVVVVVV",
"VV$VVVVVy>,>tVVVVVVV",
"VVOVVVgyh.s.6zgVVVVV",
"Vs7VVhxk&l7li9xVVVVV",
"d.alrvvX+eeeX:vltVVV",
"VOstvvk.:eee&.kNvtVV",
"Vd$bMkkk+nVB7fkxMbVV",
"VVVcMmvck9*9kcvNMcVV",
"VVVrcbmBBNNNBBmbcrVV",
"VVV&%30yyjjjyy03%&VV",
"VVVVVi$@%33%%@X:VVVV"
};
