/* XPM */
static char *try2[]={
"26 14 37 1",
". c None",
"n c #000000",
"H c #000008",
"j c #202c39",
"E c #202c41",
"F c #203031",
"l c #292c39",
"i c #312c41",
"t c #4a555a",
"s c #4a5562",
"C c #525062",
"c c #627173",
"a c #62717b",
"d c #627183",
"e c #6a6d7b",
"b c #6a6d83",
"# c #6a717b",
"z c #6a757b",
"f c #6a7583",
"A c #737183",
"D c #a4aeb4",
"m c #a4aec5",
"g c #a4b2b4",
"k c #acb2bd",
"G c #acb2c5",
"h c #acb6bd",
"I c #dcdcdc",
"o c #dee6e6",
"u c #dee6ee",
"q c #e6e6ee",
"r c #e6eaee",
"p c #e6eaf6",
"v c #eeeaee",
"B c #eeeaf6",
"w c #eeeeee",
"y c #f6eaf6",
"x c #f6eef6",
"..........................",
"..........................",
".........#aba#c.#cdeaa....",
"........fghgigj.jklhmhn...",
"bebbbbb#opqrsrsntqturopnd#",
"vwvvvvvvxvwyzyA.aw#wywywyw",
"BuBBBBBBopurCrs.CoCopoBoru",
"ghgggggghmhDEgl.FkjhmkgGgG",
"nnnnnnnncbaenbnnHaHadeannn",
"........nghmnDn.nhnGghn...",
".........nnnnnn.nnnnnn....",
"..........................",
"..........................",
".....I...................."};
