/* XPM */
static char *try4[]={
"26 14 40 1",
". c None",
"i c #000000",
"K c #000008",
"k c #202c39",
"j c #203039",
"g c #292c41",
"r c #4a5562",
"v c #4a595a",
"t c #525562",
"J c #627173",
"d c #62717b",
"w c #627183",
"n c #6a6d7b",
"m c #6a6d83",
"# c #6a717b",
"a c #6a757b",
"c c #6a7583",
"b c #737583",
"f c #a4aebd",
"E c #a4b2b4",
"h c #a8dcff",
"F c #acaebd",
"H c #acb2bd",
"I c #acb2c5",
"e c #acb6bd",
"G c #acb6c5",
"l c #b4b2c5",
"L c #dcdcdc",
"o c #dee6e6",
"C c #dee6ee",
"p c #e6e6ee",
"A c #e6eae6",
"s c #e6eaee",
"q c #e6eaf6",
"D c #eee6f6",
"x c #eeeaee",
"u c #eeeaf6",
"y c #eeeeee",
"B c #f6eaf6",
"z c #f6eef6",
"..........................",
"..........................",
"..........#a#a#b#c#a#d....",
".........cefgfhijfkflei...",
"mnmmmmmm#opqrstihuvupoqiw#",
"xyxxxxxxxzzxwxdhwx#AzyByBy",
"uCuuuuuuuopqtshivutsDouosC",
"EeEEEEEEEeefkFjihEjfGHEIEI",
"iiiiiiiiiJ#cKcKhibKb#ndiii",
".........iIFifhiiEiEeei...",
"..........iiiiiiiiiiii....",
"..........................",
"..........................",
".....L...................."};
